<svg xmlns="http://www.w3.org/2000/svg" viewBox="0 0 1000 560" width="1000" height="560" role="img" aria-labelledby="t d">
<title id="t">A chain of egg pouches, and four chains pooled</title>
<desc id="d">Left: a curved chain of eighteen lens-shaped pouches of unequal, unordered sizes on one stalk. Right: contents counted against pouch number for four specimens of different lengths, with no trend line.</desc>
<rect x="0" y="0" width="1000" height="560" fill="#ffffff"/>
<text x="20" y="40" font-family="Montserrat, Helvetica, Arial, sans-serif" font-size="24" font-weight="700" fill="#1f2937">(a)</text>
<text x="520" y="40" font-family="Montserrat, Helvetica, Arial, sans-serif" font-size="24" font-weight="700" fill="#1f2937">(b)</text>
<path d="M55,455 C400,470 90,190 450,120" fill="none" stroke="#1f2937" stroke-width="2.5"/>
<g transform="translate(77.3,455.6) rotate(0.4)"><ellipse cx="0" cy="0" rx="10.4" ry="20.0" fill="#f3f4f6" stroke="#1f2937" stroke-width="2"/><line x1="0" y1="-11.0" x2="0" y2="-3.0" stroke="#1f2937" stroke-width="1.5"/></g>
<g transform="translate(109.1,454.7) rotate(-3.7)"><ellipse cx="0" cy="0" rx="8.0" ry="13.0" fill="#f3f4f6" stroke="#1f2937" stroke-width="2"/><line x1="0" y1="-7.2" x2="0" y2="-1.9" stroke="#1f2937" stroke-width="1.5"/></g>
<g transform="translate(140.5,451.1) rotate(-9.8)"><ellipse cx="0" cy="0" rx="13.5" ry="26.0" fill="#f3f4f6" stroke="#1f2937" stroke-width="2"/><line x1="0" y1="-14.3" x2="0" y2="-3.9" stroke="#1f2937" stroke-width="1.5"/><circle cx="-4.7" cy="6.5" r="2.6" fill="none" stroke="#1f2937" stroke-width="1.2"/><circle cx="4.1" cy="10.4" r="2.6" fill="none" stroke="#1f2937" stroke-width="1.2"/><circle cx="-1.4" cy="15.6" r="2.6" fill="none" stroke="#1f2937" stroke-width="1.2"/></g>
<g transform="translate(171.3,443.3) rotate(-19.5)"><ellipse cx="0" cy="0" rx="8.0" ry="15.0" fill="#f3f4f6" stroke="#1f2937" stroke-width="2"/><line x1="0" y1="-8.2" x2="0" y2="-2.2" stroke="#1f2937" stroke-width="1.5"/></g>
<g transform="translate(199.7,428.9) rotate(-35.3)"><ellipse cx="0" cy="0" rx="14.6" ry="28.0" fill="#f3f4f6" stroke="#1f2937" stroke-width="2"/><line x1="0" y1="-15.4" x2="0" y2="-4.2" stroke="#1f2937" stroke-width="1.5"/></g>
<g transform="translate(221.9,406.4) rotate(-55.7)"><ellipse cx="0" cy="0" rx="8.8" ry="17.0" fill="#f3f4f6" stroke="#1f2937" stroke-width="2"/><line x1="0" y1="-9.4" x2="0" y2="-2.5" stroke="#1f2937" stroke-width="1.5"/></g>
<g transform="translate(235.5,377.9) rotate(-72.0)"><ellipse cx="0" cy="0" rx="8.0" ry="14.0" fill="#f3f4f6" stroke="#1f2937" stroke-width="2"/><line x1="0" y1="-7.7" x2="0" y2="-2.1" stroke="#1f2937" stroke-width="1.5"/></g>
<g transform="translate(242.8,346.9) rotate(-80.2)"><ellipse cx="0" cy="0" rx="13.0" ry="25.0" fill="#f3f4f6" stroke="#1f2937" stroke-width="2"/><line x1="0" y1="-13.8" x2="0" y2="-3.8" stroke="#1f2937" stroke-width="1.5"/><circle cx="-4.5" cy="6.2" r="2.6" fill="none" stroke="#1f2937" stroke-width="1.2"/><circle cx="3.9" cy="10.0" r="2.6" fill="none" stroke="#1f2937" stroke-width="1.2"/><circle cx="-1.3" cy="15.0" r="2.6" fill="none" stroke="#1f2937" stroke-width="1.2"/></g>
<g transform="translate(247.4,315.4) rotate(-82.1)"><ellipse cx="0" cy="0" rx="11.4" ry="22.0" fill="#f3f4f6" stroke="#1f2937" stroke-width="2"/><line x1="0" y1="-12.1" x2="0" y2="-3.3" stroke="#1f2937" stroke-width="1.5"/></g>
<g transform="translate(252.4,283.8) rotate(-79.2)"><ellipse cx="0" cy="0" rx="8.0" ry="12.0" fill="#f3f4f6" stroke="#1f2937" stroke-width="2"/><line x1="0" y1="-6.6" x2="0" y2="-1.8" stroke="#1f2937" stroke-width="1.5"/></g>
<g transform="translate(260.1,253.0) rotate(-72.2)"><ellipse cx="0" cy="0" rx="14.0" ry="27.0" fill="#f3f4f6" stroke="#1f2937" stroke-width="2"/><line x1="0" y1="-14.9" x2="0" y2="-4.0" stroke="#1f2937" stroke-width="1.5"/><circle cx="-4.9" cy="6.8" r="2.6" fill="none" stroke="#1f2937" stroke-width="1.2"/><circle cx="4.2" cy="10.8" r="2.6" fill="none" stroke="#1f2937" stroke-width="1.2"/><circle cx="-1.4" cy="16.2" r="2.6" fill="none" stroke="#1f2937" stroke-width="1.2"/></g>
<g transform="translate(272.3,223.8) rotate(-61.9)"><ellipse cx="0" cy="0" rx="8.3" ry="16.0" fill="#f3f4f6" stroke="#1f2937" stroke-width="2"/><line x1="0" y1="-8.8" x2="0" y2="-2.4" stroke="#1f2937" stroke-width="1.5"/></g>
<g transform="translate(290.2,197.4) rotate(-49.9)"><ellipse cx="0" cy="0" rx="12.0" ry="23.0" fill="#f3f4f6" stroke="#1f2937" stroke-width="2"/><line x1="0" y1="-12.7" x2="0" y2="-3.4" stroke="#1f2937" stroke-width="1.5"/></g>
<g transform="translate(313.0,175.3) rotate(-38.6)"><ellipse cx="0" cy="0" rx="15.1" ry="29.0" fill="#f3f4f6" stroke="#1f2937" stroke-width="2"/><line x1="0" y1="-16.0" x2="0" y2="-4.3" stroke="#1f2937" stroke-width="1.5"/></g>
<g transform="translate(339.4,157.5) rotate(-29.5)"><ellipse cx="0" cy="0" rx="8.0" ry="15.0" fill="#f3f4f6" stroke="#1f2937" stroke-width="2"/><line x1="0" y1="-8.2" x2="0" y2="-2.2" stroke="#1f2937" stroke-width="1.5"/></g>
<g transform="translate(368.1,143.6) rotate(-22.5)"><ellipse cx="0" cy="0" rx="12.5" ry="24.0" fill="#f3f4f6" stroke="#1f2937" stroke-width="2"/><line x1="0" y1="-13.2" x2="0" y2="-3.6" stroke="#1f2937" stroke-width="1.5"/><circle cx="-4.4" cy="6.0" r="2.6" fill="none" stroke="#1f2937" stroke-width="1.2"/><circle cx="3.7" cy="9.6" r="2.6" fill="none" stroke="#1f2937" stroke-width="1.2"/><circle cx="-1.2" cy="14.4" r="2.6" fill="none" stroke="#1f2937" stroke-width="1.2"/></g>
<g transform="translate(398.2,132.8) rotate(-17.2)"><ellipse cx="0" cy="0" rx="8.0" ry="13.0" fill="#f3f4f6" stroke="#1f2937" stroke-width="2"/><line x1="0" y1="-7.2" x2="0" y2="-1.9" stroke="#1f2937" stroke-width="1.5"/></g>
<g transform="translate(428.7,124.6) rotate(-13.2)"><ellipse cx="0" cy="0" rx="10.9" ry="21.0" fill="#f3f4f6" stroke="#1f2937" stroke-width="2"/><line x1="0" y1="-11.6" x2="0" y2="-3.1" stroke="#1f2937" stroke-width="1.5"/></g>
<text x="77.6" y="420.6" text-anchor="middle" font-family="Montserrat, Helvetica, Arial, sans-serif" font-size="20" fill="#b91c1c">1</text>
<text x="291.0" y="322.5" text-anchor="middle" font-family="Montserrat, Helvetica, Arial, sans-serif" font-size="20" fill="#b91c1c">9</text>
<text x="438.5" y="173.4" text-anchor="middle" font-family="Montserrat, Helvetica, Arial, sans-serif" font-size="20" fill="#b91c1c">18</text>
<text x="30" y="90" font-family="Montserrat, Helvetica, Arial, sans-serif" font-size="20" font-style="italic" fill="#1f2937">numbered from one end:</text>
<text x="30" y="116" font-family="Montserrat, Helvetica, Arial, sans-serif" font-size="20" font-style="italic" fill="#1f2937">which end is a question,</text>
<text x="30" y="142" font-family="Montserrat, Helvetica, Arial, sans-serif" font-size="20" font-style="italic" fill="#1f2937">not a given</text>
<text x="250" y="515" text-anchor="middle" font-family="Montserrat, Helvetica, Arial, sans-serif" font-size="20" fill="#1f2937">one specimen: a row of pouches,</text>
<text x="250" y="541" text-anchor="middle" font-family="Montserrat, Helvetica, Arial, sans-serif" font-size="20" fill="#1f2937">read as a worm</text>
<line x1="600" y1="440" x2="975" y2="440" stroke="#1f2937" stroke-width="2.5"/>
<line x1="600" y1="440" x2="600" y2="95" stroke="#1f2937" stroke-width="2.5"/>
<line x1="617" y1="440" x2="617" y2="448" stroke="#1f2937" stroke-width="2"/>
<text x="617" y="472" text-anchor="middle" font-family="Montserrat, Helvetica, Arial, sans-serif" font-size="20" fill="#1f2937">1</text>
<line x1="685" y1="440" x2="685" y2="448" stroke="#1f2937" stroke-width="2"/>
<text x="685" y="472" text-anchor="middle" font-family="Montserrat, Helvetica, Arial, sans-serif" font-size="20" fill="#1f2937">5</text>
<line x1="770" y1="440" x2="770" y2="448" stroke="#1f2937" stroke-width="2"/>
<text x="770" y="472" text-anchor="middle" font-family="Montserrat, Helvetica, Arial, sans-serif" font-size="20" fill="#1f2937">10</text>
<line x1="855" y1="440" x2="855" y2="448" stroke="#1f2937" stroke-width="2"/>
<text x="855" y="472" text-anchor="middle" font-family="Montserrat, Helvetica, Arial, sans-serif" font-size="20" fill="#1f2937">15</text>
<line x1="940" y1="440" x2="940" y2="448" stroke="#1f2937" stroke-width="2"/>
<text x="940" y="472" text-anchor="middle" font-family="Montserrat, Helvetica, Arial, sans-serif" font-size="20" fill="#1f2937">20</text>
<text x="787.5" y="502" text-anchor="middle" font-family="Montserrat, Helvetica, Arial, sans-serif" font-size="22" fill="#1f2937">pouch number</text>
<text x="0" y="0" transform="translate(578,287.5) rotate(-90)" text-anchor="middle" font-family="Montserrat, Helvetica, Arial, sans-serif" font-size="22" fill="#1f2937">contents counted</text>
<text x="787.5" y="540" text-anchor="middle" font-family="Montserrat, Helvetica, Arial, sans-serif" font-size="22" fill="#1f2937">four specimens pooled</text>
<text x="630" y="117" font-family="Montserrat, Helvetica, Arial, sans-serif" font-size="20" font-style="italic" fill="#1f2937">the generalization lives here,</text>
<text x="630" y="143" font-family="Montserrat, Helvetica, Arial, sans-serif" font-size="20" font-style="italic" fill="#1f2937">not in any one chain,</text>
<text x="630" y="169" font-family="Montserrat, Helvetica, Arial, sans-serif" font-size="20" font-style="italic" fill="#1f2937">if there is one</text>
<circle cx="617" cy="407.6" r="6" fill="#ffffff" stroke="#b91c1c" stroke-width="2.2"/>
<circle cx="634" cy="378.8" r="6" fill="#ffffff" stroke="#b91c1c" stroke-width="2.2"/>
<circle cx="651" cy="393.2" r="6" fill="#ffffff" stroke="#b91c1c" stroke-width="2.2"/>
<circle cx="668" cy="346.4" r="6" fill="#ffffff" stroke="#b91c1c" stroke-width="2.2"/>
<circle cx="685" cy="360.8" r="6" fill="#ffffff" stroke="#b91c1c" stroke-width="2.2"/>
<circle cx="702" cy="314.0" r="6" fill="#ffffff" stroke="#b91c1c" stroke-width="2.2"/>
<circle cx="719" cy="332.0" r="6" fill="#ffffff" stroke="#b91c1c" stroke-width="2.2"/>
<circle cx="736" cy="281.6" r="6" fill="#ffffff" stroke="#b91c1c" stroke-width="2.2"/>
<circle cx="753" cy="299.6" r="6" fill="#ffffff" stroke="#b91c1c" stroke-width="2.2"/>
<circle cx="770" cy="249.2" r="6" fill="#ffffff" stroke="#b91c1c" stroke-width="2.2"/>
<circle cx="787" cy="267.2" r="6" fill="#ffffff" stroke="#b91c1c" stroke-width="2.2"/>
<circle cx="804" cy="216.8" r="6" fill="#ffffff" stroke="#b91c1c" stroke-width="2.2"/>
<circle cx="617" cy="202.4" r="6" fill="#ffffff" stroke="#1f2937" stroke-width="2.2"/>
<circle cx="634" cy="231.2" r="6" fill="#ffffff" stroke="#1f2937" stroke-width="2.2"/>
<circle cx="651" cy="213.2" r="6" fill="#ffffff" stroke="#1f2937" stroke-width="2.2"/>
<circle cx="668" cy="252.8" r="6" fill="#ffffff" stroke="#1f2937" stroke-width="2.2"/>
<circle cx="685" cy="234.8" r="6" fill="#ffffff" stroke="#1f2937" stroke-width="2.2"/>
<circle cx="702" cy="278.0" r="6" fill="#ffffff" stroke="#1f2937" stroke-width="2.2"/>
<circle cx="719" cy="260.0" r="6" fill="#ffffff" stroke="#1f2937" stroke-width="2.2"/>
<circle cx="736" cy="303.2" r="6" fill="#ffffff" stroke="#1f2937" stroke-width="2.2"/>
<circle cx="753" cy="288.8" r="6" fill="#ffffff" stroke="#1f2937" stroke-width="2.2"/>
<circle cx="770" cy="332.0" r="6" fill="#ffffff" stroke="#1f2937" stroke-width="2.2"/>
<circle cx="787" cy="314.0" r="6" fill="#ffffff" stroke="#1f2937" stroke-width="2.2"/>
<circle cx="804" cy="360.8" r="6" fill="#ffffff" stroke="#1f2937" stroke-width="2.2"/>
<circle cx="821" cy="346.4" r="6" fill="#ffffff" stroke="#1f2937" stroke-width="2.2"/>
<circle cx="838" cy="389.6" r="6" fill="#ffffff" stroke="#1f2937" stroke-width="2.2"/>
<circle cx="855" cy="375.2" r="6" fill="#ffffff" stroke="#1f2937" stroke-width="2.2"/>
<circle cx="617" cy="310.4" r="6" fill="#ffffff" stroke="#1f2937" stroke-width="2.2"/>
<circle cx="634" cy="285.2" r="6" fill="#ffffff" stroke="#1f2937" stroke-width="2.2"/>
<circle cx="651" cy="328.4" r="6" fill="#ffffff" stroke="#1f2937" stroke-width="2.2"/>
<circle cx="668" cy="296.0" r="6" fill="#ffffff" stroke="#1f2937" stroke-width="2.2"/>
<circle cx="685" cy="317.6" r="6" fill="#ffffff" stroke="#1f2937" stroke-width="2.2"/>
<circle cx="702" cy="281.6" r="6" fill="#ffffff" stroke="#1f2937" stroke-width="2.2"/>
<circle cx="719" cy="324.8" r="6" fill="#ffffff" stroke="#1f2937" stroke-width="2.2"/>
<circle cx="736" cy="303.2" r="6" fill="#ffffff" stroke="#1f2937" stroke-width="2.2"/>
<circle cx="753" cy="288.8" r="6" fill="#ffffff" stroke="#1f2937" stroke-width="2.2"/>
<circle cx="770" cy="321.2" r="6" fill="#ffffff" stroke="#1f2937" stroke-width="2.2"/>
<circle cx="787" cy="299.6" r="6" fill="#ffffff" stroke="#1f2937" stroke-width="2.2"/>
<circle cx="804" cy="314.0" r="6" fill="#ffffff" stroke="#1f2937" stroke-width="2.2"/>
<circle cx="821" cy="285.2" r="6" fill="#ffffff" stroke="#1f2937" stroke-width="2.2"/>
<circle cx="838" cy="328.4" r="6" fill="#ffffff" stroke="#1f2937" stroke-width="2.2"/>
<circle cx="855" cy="306.8" r="6" fill="#ffffff" stroke="#1f2937" stroke-width="2.2"/>
<circle cx="872" cy="292.4" r="6" fill="#ffffff" stroke="#1f2937" stroke-width="2.2"/>
<circle cx="889" cy="317.6" r="6" fill="#ffffff" stroke="#1f2937" stroke-width="2.2"/>
<circle cx="906" cy="303.2" r="6" fill="#ffffff" stroke="#1f2937" stroke-width="2.2"/>
<circle cx="617" cy="422.0" r="6" fill="#ffffff" stroke="#1f2937" stroke-width="2.2"/>
<circle cx="634" cy="396.8" r="6" fill="#ffffff" stroke="#1f2937" stroke-width="2.2"/>
<circle cx="651" cy="404.0" r="6" fill="#ffffff" stroke="#1f2937" stroke-width="2.2"/>
<circle cx="668" cy="364.4" r="6" fill="#ffffff" stroke="#1f2937" stroke-width="2.2"/>
<circle cx="685" cy="375.2" r="6" fill="#ffffff" stroke="#1f2937" stroke-width="2.2"/>
<circle cx="702" cy="332.0" r="6" fill="#ffffff" stroke="#1f2937" stroke-width="2.2"/>
<circle cx="719" cy="339.2" r="6" fill="#ffffff" stroke="#1f2937" stroke-width="2.2"/>
<circle cx="736" cy="292.4" r="6" fill="#ffffff" stroke="#1f2937" stroke-width="2.2"/>
<circle cx="753" cy="303.2" r="6" fill="#ffffff" stroke="#1f2937" stroke-width="2.2"/>
<circle cx="770" cy="263.6" r="6" fill="#ffffff" stroke="#1f2937" stroke-width="2.2"/>
<circle cx="787" cy="274.4" r="6" fill="#ffffff" stroke="#1f2937" stroke-width="2.2"/>
<circle cx="804" cy="267.2" r="6" fill="#ffffff" stroke="#1f2937" stroke-width="2.2"/>
<circle cx="821" cy="296.0" r="6" fill="#ffffff" stroke="#1f2937" stroke-width="2.2"/>
<circle cx="838" cy="288.8" r="6" fill="#ffffff" stroke="#1f2937" stroke-width="2.2"/>
<circle cx="855" cy="324.8" r="6" fill="#ffffff" stroke="#1f2937" stroke-width="2.2"/>
<circle cx="872" cy="335.6" r="6" fill="#ffffff" stroke="#1f2937" stroke-width="2.2"/>
<circle cx="889" cy="364.4" r="6" fill="#ffffff" stroke="#1f2937" stroke-width="2.2"/>
<circle cx="906" cy="375.2" r="6" fill="#ffffff" stroke="#1f2937" stroke-width="2.2"/>
<circle cx="923" cy="400.4" r="6" fill="#ffffff" stroke="#1f2937" stroke-width="2.2"/>
<circle cx="940" cy="411.2" r="6" fill="#ffffff" stroke="#1f2937" stroke-width="2.2"/>
<circle cx="957" cy="425.6" r="6" fill="#ffffff" stroke="#1f2937" stroke-width="2.2"/>
</svg>
